<mxfile host="app.diagrams.net" agent="Mozilla/5.0 (Windows NT 10.0; Win64; x64; rv:105.0) Gecko/20100101 Firefox/105.0" version="26.1.0">
  <diagram name="Page-1" id="OQOr1mg8QDjaTYMs0Q1o">
    <mxGraphModel dx="2954" dy="1106" grid="1" gridSize="10" guides="1" tooltips="1" connect="1" arrows="1" fold="1" page="1" pageScale="1" pageWidth="850" pageHeight="1100" math="0" shadow="0">
      <root>
        <mxCell id="0" />
        <mxCell id="1" parent="0" />
        <mxCell id="d0iPI7ET7aq7G0_gl3pU-3" value="" style="edgeStyle=orthogonalEdgeStyle;rounded=0;orthogonalLoop=1;jettySize=auto;html=1;" edge="1" parent="1" source="d0iPI7ET7aq7G0_gl3pU-1" target="d0iPI7ET7aq7G0_gl3pU-2">
          <mxGeometry relative="1" as="geometry" />
        </mxCell>
        <mxCell id="d0iPI7ET7aq7G0_gl3pU-1" value="Login Page" style="rounded=0;whiteSpace=wrap;html=1;" vertex="1" parent="1">
          <mxGeometry x="200" y="410" width="120" height="60" as="geometry" />
        </mxCell>
        <mxCell id="d0iPI7ET7aq7G0_gl3pU-5" value="" style="edgeStyle=orthogonalEdgeStyle;rounded=0;orthogonalLoop=1;jettySize=auto;html=1;" edge="1" parent="1" source="d0iPI7ET7aq7G0_gl3pU-2" target="d0iPI7ET7aq7G0_gl3pU-4">
          <mxGeometry relative="1" as="geometry" />
        </mxCell>
        <mxCell id="d0iPI7ET7aq7G0_gl3pU-2" value="&lt;div&gt;Dashboard&lt;/div&gt;&lt;div&gt;&lt;br&gt;&lt;/div&gt;" style="whiteSpace=wrap;html=1;rounded=0;" vertex="1" parent="1">
          <mxGeometry x="400" y="410" width="120" height="60" as="geometry" />
        </mxCell>
        <mxCell id="d0iPI7ET7aq7G0_gl3pU-4" value="&lt;div&gt;Task View Page&lt;/div&gt;" style="whiteSpace=wrap;html=1;rounded=0;" vertex="1" parent="1">
          <mxGeometry x="400" y="270" width="120" height="60" as="geometry" />
        </mxCell>
        <mxCell id="d0iPI7ET7aq7G0_gl3pU-6" value="404 Page" style="rounded=1;whiteSpace=wrap;html=1;" vertex="1" parent="1">
          <mxGeometry x="50" y="230" width="120" height="60" as="geometry" />
        </mxCell>
      </root>
    </mxGraphModel>
  </diagram>
</mxfile>
